<svg xmlns="http://www.w3.org/2000/svg">
    <symbol id="logo" viewBox="0 0 56 54" fill="none" xmlns="http://www.w3.org/2000/svg">
        <path d="M28.5 16C32.6421 16 36 12.6421 36 8.5C36 4.35786 32.6421 1 28.5 1C24.3579 1 21 4.35786 21 8.5C21 12.6421 24.3579 16 28.5 16Z" stroke="currentColor" stroke-width="2" stroke-miterlimit="10"/>
        <path d="M48 48C51.866 48 55 44.6421 55 40.5C55 36.3579 51.866 33 48 33C44.134 33 41 36.3579 41 40.5C41 44.6421 44.134 48 48 48Z" stroke="currentColor" stroke-width="2" stroke-miterlimit="10"/>
        <path d="M8.5 48C12.6421 48 16 44.6421 16 40.5C16 36.3579 12.6421 33 8.5 33C4.35786 33 1 36.3579 1 40.5C1 44.6421 4.35786 48 8.5 48Z" stroke="currentColor" stroke-width="2" stroke-miterlimit="10"/>
        <path d="M13 46C17.1451 50.4878 22.7077 53 28.5 53C34.2922 53 39.8549 50.4878 44 46" stroke="currentColor" stroke-width="2" stroke-miterlimit="10"/>
        <path d="M36 10C40.0914 11.5191 43.6393 14.3718 46.1488 18.1603C48.6584 21.9488 50.0044 26.4841 49.9992 31.1336C50.0079 32.0931 49.943 33.0519 49.8051 34" stroke="currentColor" stroke-width="2" stroke-miterlimit="10"/>
        <path d="M5.2227 34C5.06518 33.0488 4.99099 32.0869 5.00087 31.1242C5.01221 26.4729 6.55857 21.9403 9.42544 18.155C12.2923 14.3698 16.3376 11.5197 21 10" stroke="currentColor" stroke-width="2" stroke-miterlimit="10"/>
    </symbol>

    <symbol id="chevron-down" viewBox="0 0 14 9">
        <path d="M1 1C4.86528 1 8 5.02922 8 10C8 5.02922 11.1347 1 15 1" stroke="currentColor" stroke-miterlimit="10" stroke-linecap="round" stroke-linejoin="round"/>
    </symbol>

    <symbol id="search" viewBox="0 0 21 22" xmlns="http://www.w3.org/2000/svg">
        <path d="M3.90661 8.85192C3.90661 13.4675 7.62406 17.2038 12.2032 17.2038C16.7823 17.2038 20.4998 13.4675 20.4998 8.85192C20.4998 4.23632 16.7823 0.5 12.2032 0.5C7.62406 0.5 3.90661 4.23632 3.90661 8.85192Z" stroke="currentColor"/>
        <line y1="-0.5" x2="8.65546" y2="-0.5" transform="matrix(-0.65913 0.752029 0.747913 0.663797 6.70508 15.4908)" stroke="currentColor"/>
    </symbol>

    <symbol id="cart" viewBox="0 0 24 24" xmlns="http://www.w3.org/2000/svg">
        <path d="M3.09719 21.9447L0.956161 11.1014C0.834113 10.4833 1.30717 9.90771 1.93722 9.90771H21.6449C22.2817 9.90771 22.7563 10.495 22.6226 11.1176L20.2954 21.9608C20.1965 22.4217 19.7891 22.751 19.3177 22.751H4.07824C3.60064 22.751 3.1897 22.4132 3.09719 21.9447Z" stroke="currentColor"/>
        <path d="M6.55469 12.2431C6.55469 -3.32451 17.0524 -3.3245 17.0524 12.2431" stroke="currentColor"/>
    </symbol>

    <symbol id="profile" viewBox="0 0 24 22" xmlns="http://www.w3.org/2000/svg">
        <path d="M17.1115 5.67742C17.1115 8.52919 14.7595 10.8548 11.8409 10.8548C8.92234 10.8548 6.57031 8.52919 6.57031 5.67742C6.57031 2.82565 8.92234 0.5 11.8409 0.5C14.7595 0.5 17.1115 2.82565 17.1115 5.67742Z" stroke="currentColor"/>
        <path d="M23.3913 21.0729C23.4195 21.2747 23.2554 21.5 22.9602 21.5H12.4602H1.90642C1.61853 21.5 1.46624 21.2907 1.48248 21.1151C1.54714 20.416 1.75261 19.7209 2.09878 19.0503C2.58504 18.1083 3.34081 17.2308 4.33394 16.4759C5.3271 15.721 6.53286 15.1077 7.88343 14.6779C9.23369 14.2482 10.696 14.0124 12.1835 13.9863C13.6709 13.9603 15.1488 14.1446 16.529 14.5268C17.9095 14.9092 19.1592 15.4803 20.2069 16.2014C21.2547 16.9225 22.0741 17.7751 22.6281 18.7024C23.0098 19.3414 23.2733 20.2301 23.3913 21.0729Z" stroke="currentColor"/>
    </symbol>

    <symbol id="arrow-right" viewBox="0 0 24 24" xmlns="http://www.w3.org/2000/svg">
        <circle cx="12" cy="12" r="9.5" stroke="currentColor"/>
        <path d="M19.0371 11.8144C15.5097 11.8144 12.6505 13.7218 12.6505 16.0737M19.0371 11.8144C15.5097 11.8144 12.6505 9.90703 12.6505 7.55515M19.0371 11.8144L5.33334 11.8147" stroke="currentColor" stroke-width="0.8" stroke-miterlimit="10"/>
    </symbol>
</svg>